<svg width="14" height="14" viewBox="0 0 14 14" fill="none" xmlns="http://www.w3.org/2000/svg">
<g clip-path="url(#clip0)">
<path d="M13.8889 12.652L7.58891 0.401953C7.46006 0.151484 7.23825 0 7.00003 0C6.76181 0 6.54 0.151484 6.41115 0.401953L0.111133 12.652C0.0431462 12.7841 0.00489188 12.9368 0.000388358 13.0938C-0.00411516 13.2509 0.0252983 13.4065 0.0855392 13.5445C0.145808 13.6823 0.234669 13.7974 0.342789 13.8776C0.45091 13.9577 0.574303 14 0.70001 14H13.3C13.5562 14 13.7918 13.8253 13.9145 13.5442C13.9748 13.4063 14.0042 13.2507 13.9997 13.0937C13.9952 12.9367 13.9569 12.7841 13.8889 12.652ZM7.00003 2.4932L8.86794 6.125H7.00003L5.60003 7.875L4.76746 6.8343L7.00003 2.4932Z" fill="#1098AD"/>
</g>
<defs>
<clipPath id="clip0">
<rect width="14" height="14" fill="white"/>
</clipPath>
</defs>
</svg>
