<svg width="14" height="14" viewBox="0 0 14 14" fill="none" xmlns="http://www.w3.org/2000/svg">
<g clip-path="url(#clip0)">
<path d="M7.88288 12.652L4.30719 0.401953C4.23406 0.151484 4.10817 0 3.97296 0C3.83776 0 3.71186 0.151484 3.63874 0.401953L0.0630491 12.652C0.024462 12.7841 0.00275008 12.9368 0.000194026 13.0938C-0.00236203 13.2509 0.0143321 13.4065 0.0485229 13.5445C0.0827296 13.6823 0.133164 13.7974 0.19453 13.8776C0.255896 13.9577 0.325929 14 0.397277 14H7.54865C7.69404 14 7.82775 13.8253 7.8974 13.5442C7.93159 13.4063 7.94829 13.2507 7.94573 13.0937C7.94318 12.9367 7.92146 12.7841 7.88288 12.652ZM3.97296 2.4932L5.03313 6.125H3.97296L3.17837 7.875L2.70583 6.8343L3.97296 2.4932Z" fill="#1098AD"/>
</g>
<g clip-path="url(#clip1)">
<path d="M13.9369 12.652L10.3612 0.401953C10.2881 0.151484 10.1622 0 10.027 0C9.8918 0 9.76591 0.151484 9.69278 0.401953L6.1171 12.652C6.07851 12.7841 6.0568 12.9368 6.05424 13.0938C6.05168 13.2509 6.06838 13.4065 6.10257 13.5445C6.13678 13.6823 6.18721 13.7974 6.24858 13.8776C6.30994 13.9577 6.37998 14 6.45132 14H13.6027C13.7481 14 13.8818 13.8253 13.9515 13.5442C13.9856 13.4063 14.0023 13.2507 13.9998 13.0937C13.9972 12.9367 13.9755 12.7841 13.9369 12.652ZM10.027 2.4932L11.0872 6.125H10.027L9.23241 7.875L8.75988 6.8343L10.027 2.4932Z" fill="#1098AD"/>
</g>
<g clip-path="url(#clip2)">
<path d="M10.4299 12.7921L10.43 12.7921C10.4544 12.8758 10.4709 12.9834 10.4728 13.1018C10.4748 13.22 10.4619 13.3321 10.4391 13.4238L10.4391 13.4239C10.4318 13.4534 10.424 13.4787 10.4163 13.5H3.58363C3.5762 13.4795 3.56837 13.4543 3.56087 13.4242C3.53812 13.3324 3.52524 13.2202 3.52717 13.102C3.5291 12.9834 3.5456 12.8758 3.57006 12.7921L3.57006 12.7921L5.26004 7.00233L5.2776 7.04101L5.75014 8.08172L6.2054 9.08438L6.66067 8.08172L7.3221 6.625H8.06017H8.62983L10.4299 12.7921Z" fill="white" stroke="#1098AD"/>
</g>
<defs>
<clipPath id="clip0">
<rect width="7.94595" height="14" fill="white"/>
</clipPath>
<clipPath id="clip1">
<rect width="7.94595" height="14" fill="white" transform="translate(6.05405)"/>
</clipPath>
<clipPath id="clip2">
<rect width="7.94595" height="14" fill="white" transform="translate(3.02704)"/>
</clipPath>
</defs>
</svg>
