<svg width="14" height="14" viewBox="0 0 14 14" fill="none" xmlns="http://www.w3.org/2000/svg">
<g clip-path="url(#clip0)">
<path d="M10.4167 12.652L5.69166 0.401953C5.59503 0.151484 5.42867 0 5.25001 0C5.07134 0 4.90498 0.151484 4.80835 0.401953L0.0833345 12.652C0.0323444 12.7841 0.00365365 12.9368 0.00027601 13.0938C-0.00310163 13.2509 0.0189585 13.4065 0.0641391 13.5445C0.109341 13.6823 0.175986 13.7974 0.257077 13.8776C0.338168 13.9577 0.430712 14 0.524992 14H9.97502C10.1671 14 10.3438 13.8253 10.4359 13.5442C10.4811 13.4063 10.5031 13.2507 10.4997 13.0937C10.4964 12.9367 10.4677 12.7841 10.4167 12.652ZM5.25001 2.4932L6.65094 6.125H5.25001L4.2 7.875L3.57558 6.8343L5.25001 2.4932Z" fill="#1098AD"/>
</g>
<g clip-path="url(#clip1)">
<path d="M13.4502 12.832L13.4502 12.8319L8.75001 0.646297L4.04984 12.8319L4.04983 12.8319C4.02183 12.9045 4.00243 12.9992 4.00016 13.1046C3.9979 13.2098 4.01308 13.3087 4.03926 13.3887L13.4502 12.832ZM13.4502 12.832C13.4782 12.9045 13.4976 12.9991 13.4999 13.1044C13.5021 13.2096 13.4869 13.3085 13.4607 13.3885L13.4607 13.3886M13.4502 12.832L13.4607 13.3886M13.4607 13.3886C13.4428 13.4432 13.4233 13.4789 13.4089 13.5H4.09106M13.4607 13.3886L4.09106 13.5M4.09106 13.5C4.07658 13.4787 4.05708 13.443 4.0393 13.3888L4.09106 13.5ZM9.2165 2.31326L8.74999 1.10386L8.28351 2.31327L6.60908 6.65436L6.52121 6.88217L6.64683 7.09155L7.27126 8.13225L7.7 8.84682L8.12875 8.13225L9.0331 6.625H10.1509H10.8797L10.6174 5.94505L9.2165 2.31326Z" fill="white" stroke="#1098AD"/>
</g>
<defs>
<clipPath id="clip0">
<rect width="10.5" height="14" fill="white"/>
</clipPath>
<clipPath id="clip1">
<rect width="10.5" height="14" fill="white" transform="translate(3.5)"/>
</clipPath>
</defs>
</svg>
