<svg width="9" height="9" viewBox="0 0 9 9" fill="none" xmlns="http://www.w3.org/2000/svg">
<path d="M0 0.685714C0 0.307005 0.307005 0 0.685714 0H7.56429C7.943 0 8.25 0.307005 8.25 0.685714V2H0V0.685714Z" fill="#FA5252"/>
<path d="M0 2.35715H8.25V7.82144C8.25 8.05813 8.05812 8.25001 7.82143 8.25001H0.428572C0.191878 8.25001 0 8.05813 0 7.82144V2.35715Z" fill="#CCCCCC"/>
<rect x="1.17847" y="5.89284" width="1.17857" height="1.17857" rx="0.171429" fill="white"/>
<rect x="3.53571" y="5.89284" width="1.17857" height="1.17857" rx="0.171429" fill="white"/>
<rect x="5.89276" y="5.89284" width="1.17857" height="1.17857" rx="0.171429" fill="white"/>
<rect x="1.17847" y="3.53571" width="1.17857" height="1.17857" rx="0.171429" fill="white"/>
<rect x="3.53571" y="3.5357" width="1.17857" height="1.17857" rx="0.171429" fill="white"/>
<rect x="5.89276" y="3.5357" width="1.17857" height="1.17857" rx="0.171429" fill="white"/>
</svg>
