<svg width="18" height="18" viewBox="0 0 18 18" fill="none" xmlns="http://www.w3.org/2000/svg">
<g clip-path="url(#clip0)">
<path d="M14.25 9.03464C13.8352 9.03464 13.5 9.37068 13.5 9.78459V15.7846C13.5 16.1979 13.164 16.5346 12.75 16.5346H2.25C1.83595 16.5346 1.50005 16.1979 1.50005 15.7846V5.28459C1.50005 4.87137 1.83595 4.53464 2.25 4.53464H8.25005C8.66478 4.53464 9 4.19859 9 3.78468C9 3.37064 8.66478 3.03459 8.25005 3.03459H2.25C1.00951 3.03459 0 4.0441 0 5.28459V15.7846C0 17.0251 1.00951 18.0346 2.25 18.0346H12.75C13.9905 18.0346 15 17.0251 15 15.7846V9.78459C15 9.36986 14.6647 9.03464 14.25 9.03464Z" fill="#666666"/>
<path d="M7.03193 8.35142C6.97947 8.40388 6.94417 8.47063 6.92921 8.54259L6.39898 11.1947C6.37426 11.3176 6.41326 11.4444 6.5017 11.5336C6.57297 11.6049 6.66897 11.6431 6.76729 11.6431C6.79119 11.6431 6.81605 11.6409 6.84077 11.6356L9.49204 11.1054C9.56551 11.0903 9.63225 11.0552 9.68403 11.0026L15.618 5.06857L12.9667 2.41743L7.03193 8.35142Z" fill="#666666"/>
<path d="M17.451 0.583637C16.7198 -0.14764 15.5303 -0.14764 14.7997 0.583637L13.7617 1.62157L16.413 4.27285L17.451 3.23478C17.805 2.88157 18 2.41053 18 1.90955C18 1.40857 17.805 0.937534 17.451 0.583637Z" fill="#666666"/>
</g>
<defs>
<clipPath id="clip0">
<rect width="18" height="18" fill="white"/>
</clipPath>
</defs>
</svg>
