<svg width="6" height="8" viewBox="0 0 6 8" fill="none" xmlns="http://www.w3.org/2000/svg">
<path d="M5.47368 2.57143C5.47368 1.15179 4.24781 0 2.73684 0C1.22588 0 0 1.15179 0 2.57143C0 3.79464 0.91038 4.81964 2.12865 5.07857V6H1.44444C1.31901 6 1.21637 6.09643 1.21637 6.21429V6.92857C1.21637 7.04643 1.31901 7.14286 1.44444 7.14286H2.12865V7.78571C2.12865 7.90357 2.23129 8 2.35673 8H3.11696C3.2424 8 3.34503 7.90357 3.34503 7.78571V7.14286H4.02924C4.15468 7.14286 4.25731 7.04643 4.25731 6.92857V6.21429C4.25731 6.09643 4.15468 6 4.02924 6H3.34503V5.07857C4.5633 4.81964 5.47368 3.79464 5.47368 2.57143V2.57143ZM1.21637 2.57143C1.21637 1.78393 1.89868 1.14286 2.73684 1.14286C3.575 1.14286 4.25731 1.78393 4.25731 2.57143C4.25731 3.35893 3.575 4 2.73684 4C1.89868 4 1.21637 3.35893 1.21637 2.57143Z" fill="#FA5252"/>
</svg>
