<svg width="9" height="8" viewBox="0 0 9 8" fill="none" xmlns="http://www.w3.org/2000/svg">
<path d="M8.8125 0H7.57812C7.41094 0 7.32812 0.201562 7.44531 0.320312L7.70937 0.584375L6.94844 1.34531C6.60156 1.12656 6.19063 1 5.75 1C5.22344 1 4.74062 1.18125 4.35625 1.48281C4.575 1.74375 4.74687 2.04531 4.85781 2.375C5.08437 2.14375 5.4 2 5.75 2C6.43906 2 7 2.56094 7 3.25C7 3.93906 6.43906 4.5 5.75 4.5C5.40156 4.5 5.08437 4.35625 4.85781 4.125C4.74687 4.45469 4.57656 4.75625 4.35625 5.01719C4.73906 5.32031 5.22344 5.5 5.75 5.5C6.99219 5.5 8 4.49219 8 3.25C8 2.80938 7.87344 2.39844 7.65469 2.05156L8.41562 1.29062L8.67969 1.55469C8.71719 1.59219 8.76406 1.60938 8.81094 1.60938C8.90781 1.60938 9 1.53437 9 1.42188V0.1875C9 0.084375 8.91562 0 8.8125 0ZM2.25 1C1.00781 1 0 2.00781 0 3.25C0 4.32031 0.748438 5.21719 1.75 5.44375V6.25H1.1875C1.08438 6.25 1 6.33437 1 6.4375V7.0625C1 7.16563 1.08438 7.25 1.1875 7.25H1.75V7.8125C1.75 7.91563 1.83438 8 1.9375 8H2.5625C2.66563 8 2.75 7.91563 2.75 7.8125V7.25H3.3125C3.41563 7.25 3.5 7.16563 3.5 7.0625V6.4375C3.5 6.33437 3.41563 6.25 3.3125 6.25H2.75V5.44375C3.75156 5.21562 4.5 4.32031 4.5 3.25C4.5 2.00781 3.49219 1 2.25 1ZM2.25 4.5C1.56094 4.5 1 3.93906 1 3.25C1 2.56094 1.56094 2 2.25 2C2.93906 2 3.5 2.56094 3.5 3.25C3.5 3.93906 2.93906 4.5 2.25 4.5Z" fill="#7950F2"/>
</svg>
