<svg width="19" height="17" viewBox="0 0 19 17" fill="none" xmlns="http://www.w3.org/2000/svg">
<path d="M17.4462 1.59808C16.4635 0.580971 15.0864 0.00225189 13.6436 0.000106501C12.1996 0.00171554 10.8211 0.580128 9.83685 1.59743L9.5014 1.93874L9.16595 1.59743C7.21288 -0.426558 3.92554 -0.542792 1.82355 1.33776C1.73041 1.42112 1.64045 1.5077 1.55387 1.59743C-0.517957 3.74918 -0.517957 7.07461 1.55387 9.22636L9.00842 16.7958C9.26633 17.058 9.69612 17.0692 9.96838 16.8209C9.9773 16.8127 9.98597 16.8044 9.9944 16.7958L17.4463 9.22636C19.5179 7.07484 19.5179 3.7496 17.4462 1.59808ZM16.4637 8.32602H16.463L9.5014 15.3959L2.53918 8.32602C0.956418 6.68189 0.956418 4.14125 2.53918 2.49711C3.97651 0.997101 6.40463 0.903048 7.96248 2.28702C8.03812 2.35421 8.11089 2.42428 8.18068 2.49711L9.00842 3.33795C9.28121 3.59892 9.72162 3.59892 9.9944 3.33795L10.8222 2.49776C12.2595 0.997752 14.6876 0.903699 16.2455 2.28767C16.3211 2.35486 16.3939 2.42493 16.4637 2.49776C18.0602 4.1445 18.0719 6.68978 16.4637 8.32602Z" fill="#FA5252"/>
</svg>
