<svg width="16" height="16" viewBox="0 0 16 16" fill="none" xmlns="http://www.w3.org/2000/svg">
<g clip-path="url(#clip0)">
<path d="M9.9999 8.66858C9.63125 8.66858 9.33328 8.96728 9.33328 9.3352V12.0019C9.33328 12.3692 9.03457 12.6685 8.66654 12.6685H6.66656V2.66864C6.66656 2.09931 6.30389 1.59064 5.75861 1.40132L5.56122 1.33528H8.66654C9.03457 1.33528 9.33328 1.63459 9.33328 2.00202V4.002C9.33328 4.36992 9.63125 4.66862 9.9999 4.66862C10.3685 4.66862 10.6665 4.36992 10.6665 4.002V2.00202C10.6665 0.899367 9.76919 0.00203705 8.66654 0.00203705H1.49998C1.47459 0.00203705 1.45335 0.0133895 1.4287 0.0166853C1.39659 0.0139998 1.36595 0.00203705 1.33336 0.00203705C0.598016 0.00203705 0 0.599932 0 1.33528V13.3352C0 13.9045 0.362667 14.4132 0.907949 14.6025L4.91999 15.9399C5.05598 15.9819 5.19123 16.0019 5.33332 16.0019C6.06866 16.0019 6.66656 15.4039 6.66656 14.6685V14.0019H8.66654C9.76919 14.0019 10.6665 13.1046 10.6665 12.0019V9.3352C10.6665 8.96728 10.3685 8.66858 9.9999 8.66858Z" fill="#FA5252"/>
<path d="M15.8045 6.19548L13.1378 3.52889C12.9473 3.33821 12.6605 3.28084 12.4112 3.38411C12.1626 3.48751 11.9999 3.73079 11.9999 4.0002V6.00017H9.33328C8.96524 6.00017 8.66653 6.29876 8.66653 6.66679C8.66653 7.03483 8.96524 7.33341 9.33328 7.33341H11.9999V9.33339C11.9999 9.6028 12.1626 9.84608 12.4112 9.94947C12.6605 10.0527 12.9473 9.99537 13.1378 9.80482L15.8045 7.1381C16.0651 6.87748 16.0651 6.4561 15.8045 6.19548Z" fill="#FA5252"/>
</g>
<defs>
<clipPath id="clip0">
<rect width="16" height="16" fill="white"/>
</clipPath>
</defs>
</svg>
