<svg width="7" height="7" viewBox="0 0 7 7" fill="none" xmlns="http://www.w3.org/2000/svg">
<path d="M6.78125 0H5.34115C5.14609 0 5.04948 0.235156 5.1862 0.373698L5.49427 0.681771L4.02318 2.15286C3.61849 1.89766 3.13906 1.75 2.625 1.75C1.17578 1.75 0 2.92578 0 4.375C0 5.82422 1.17578 7 2.625 7C4.07422 7 5.25 5.82422 5.25 4.375C5.25 3.86094 5.10234 3.38151 4.84714 2.97682L6.31823 1.50573L6.6263 1.8138C6.76484 1.95234 7 1.85391 7 1.65885V0.21875C7 0.0984375 6.90156 0 6.78125 0ZM2.625 5.83333C1.82109 5.83333 1.16667 5.17891 1.16667 4.375C1.16667 3.57109 1.82109 2.91667 2.625 2.91667C3.42891 2.91667 4.08333 3.57109 4.08333 4.375C4.08333 5.17891 3.42891 5.83333 2.625 5.83333Z" fill="#4C6EF5"/>
</svg>
