<svg width="37" height="23" viewBox="0 0 37 23" fill="none" xmlns="http://www.w3.org/2000/svg">
<g clip-path="url(#clip0)">
<path d="M20.8333 20.7854L11.3833 0.660352C11.19 0.248867 10.8573 0 10.5 0C10.1427 0 9.80993 0.248867 9.61667 0.660352L0.166639 20.7854C0.0646583 21.0025 0.00727678 21.2533 0.000521502 21.5113C-0.00623378 21.7693 0.0378865 22.025 0.128248 22.2516C0.218651 22.4781 0.351942 22.6672 0.514123 22.7989C0.676305 22.9306 0.861393 23 1.04995 23H19.95C20.3342 23 20.6876 22.7129 20.8717 22.2512C20.9621 22.0246 21.0062 21.769 20.9994 21.511C20.9927 21.2531 20.9353 21.0024 20.8333 20.7854ZM10.5 4.09598L13.3019 10.0625H10.5L8.39998 12.9375L7.15113 11.2278L10.5 4.09598Z" fill="#1098AD"/>
</g>
<g clip-path="url(#clip1)">
<path d="M36.8333 20.7854L27.3833 0.660352C27.19 0.248867 26.8573 0 26.5 0C26.1427 0 25.8099 0.248867 25.6167 0.660352L16.1666 20.7854C16.0647 21.0025 16.0073 21.2533 16.0005 21.5113C15.9938 21.7693 16.0379 22.025 16.1282 22.2516C16.2187 22.4781 16.3519 22.6672 16.5141 22.7989C16.6763 22.9306 16.8614 23 17.05 23H35.95C36.3342 23 36.6876 22.7129 36.8717 22.2512C36.9621 22.0246 37.0062 21.769 36.9994 21.511C36.9927 21.2531 36.9353 21.0024 36.8333 20.7854ZM26.5 4.09598L29.3019 10.0625H26.5L24.4 12.9375L23.1511 11.2278L26.5 4.09598Z" fill="#1098AD"/>
</g>
<g clip-path="url(#clip2)">
<path d="M28.3808 20.998L28.3807 20.9979L18.9307 0.872913C18.7928 0.579195 18.607 0.5 18.5 0.5C18.393 0.5 18.2072 0.579196 18.0692 0.872913L8.61923 20.9979L8.61922 20.9979C8.54876 21.1479 8.50544 21.3301 8.50035 21.5244C8.49527 21.7185 8.52887 21.9063 8.59264 22.0663L28.3808 20.998ZM28.3808 20.998C28.4512 21.1479 28.4945 21.33 28.4996 21.5241C28.5047 21.7182 28.4711 21.906 28.4073 22.0659L28.4073 22.066C28.2716 22.4065 28.0644 22.5 27.95 22.5H9.04995H9.04987M28.3808 20.998L9.04987 22.5M9.04987 22.5C8.98864 22.5 8.91258 22.4783 8.8293 22.4107C8.7437 22.3412 8.65679 22.227 8.59268 22.0664L9.04987 22.5ZM18.9526 3.88344L18.5 2.91965L18.0474 3.88346L14.6985 11.0153L14.5726 11.2834L14.7474 11.5227L15.9962 13.2324L16.4 13.7852L16.8037 13.2324L18.7539 10.5625H21.3019H22.089L21.7544 9.84997L18.9526 3.88344Z" fill="white" stroke="#1098AD"/>
</g>
<defs>
<clipPath id="clip0">
<rect width="21" height="23" fill="white"/>
</clipPath>
<clipPath id="clip1">
<rect width="21" height="23" fill="white" transform="translate(16)"/>
</clipPath>
<clipPath id="clip2">
<rect width="21" height="23" fill="white" transform="translate(8)"/>
</clipPath>
</defs>
</svg>
