<svg width="28" height="23" viewBox="0 0 28 23" fill="none" xmlns="http://www.w3.org/2000/svg">
<g clip-path="url(#clip0)">
<path d="M20.8333 20.7854L11.3833 0.660352C11.19 0.248867 10.8573 0 10.5 0C10.1427 0 9.80993 0.248867 9.61667 0.660352L0.166639 20.7854C0.0646583 21.0025 0.00727678 21.2533 0.000521502 21.5113C-0.00623378 21.7693 0.0378865 22.025 0.128248 22.2516C0.218651 22.4781 0.351942 22.6672 0.514123 22.7989C0.676305 22.9306 0.861393 23 1.04995 23H19.95C20.3342 23 20.6876 22.7129 20.8717 22.2512C20.9621 22.0246 21.0062 21.769 20.9994 21.511C20.9927 21.2531 20.9353 21.0024 20.8333 20.7854ZM10.5 4.09598L13.3019 10.0625H10.5L8.39998 12.9375L7.15113 11.2278L10.5 4.09598Z" fill="#1098AD"/>
</g>
<g clip-path="url(#clip1)">
<path d="M27.3808 20.998L27.3807 20.9979L17.9307 0.872913C17.7928 0.579195 17.607 0.5 17.5 0.5C17.393 0.5 17.2072 0.579196 17.0692 0.872913L7.61923 20.9979L7.61922 20.9979C7.54876 21.1479 7.50544 21.3301 7.50035 21.5244C7.49527 21.7185 7.52887 21.9063 7.59264 22.0663L27.3808 20.998ZM27.3808 20.998C27.4512 21.1479 27.4945 21.33 27.4996 21.5241C27.5047 21.7182 27.4711 21.906 27.4073 22.0659L27.4073 22.066C27.2716 22.4065 27.0644 22.5 26.95 22.5H8.04995H8.04987M27.3808 20.998L8.04987 22.5M8.04987 22.5C7.98864 22.5 7.91258 22.4783 7.8293 22.4107C7.7437 22.3412 7.65679 22.227 7.59268 22.0664L8.04987 22.5ZM17.9526 3.88344L17.5 2.91965L17.0474 3.88346L13.6985 11.0153L13.5726 11.2834L13.7474 11.5227L14.9962 13.2324L15.4 13.7852L15.8037 13.2324L17.7539 10.5625H20.3019H21.089L20.7544 9.84997L17.9526 3.88344Z" fill="white" stroke="#1098AD"/>
</g>
<defs>
<clipPath id="clip0">
<rect width="21" height="23" fill="white"/>
</clipPath>
<clipPath id="clip1">
<rect width="21" height="23" fill="white" transform="translate(7)"/>
</clipPath>
</defs>
</svg>
