<svg width="10" height="12" viewBox="0 0 10 12" fill="none" xmlns="http://www.w3.org/2000/svg">
<path d="M9.92058 10.8445L5.42062 0.344531C5.32859 0.129844 5.17016 0 5 0C4.82985 0 4.67141 0.129844 4.57938 0.344531L0.0794233 10.8445C0.0308619 10.9578 0.00353775 11.0887 0.000320991 11.2233C-0.00289577 11.3579 0.0181136 11.4913 0.0611422 11.6095C0.104191 11.7277 0.167662 11.8264 0.24489 11.8951C0.322118 11.9638 0.410255 12 0.500044 12H9.49996C9.68292 12 9.8512 11.8502 9.93886 11.6093C9.98189 11.4911 10.0029 11.3577 9.99968 11.2232C9.99646 11.0886 9.96914 10.9578 9.92058 10.8445ZM5 2.13703L6.33421 5.25H5L4.00001 6.75L3.40533 5.85797L5 2.13703Z" fill="#727681"/>
</svg>
