<svg width="21" height="23" viewBox="0 0 21 23" fill="none" xmlns="http://www.w3.org/2000/svg">
<g clip-path="url(#clip0)">
<path d="M20.8333 20.7854L11.3833 0.660352C11.19 0.248867 10.8573 0 10.5 0C10.1427 0 9.80993 0.248867 9.61667 0.660352L0.166639 20.7854C0.0646583 21.0025 0.00727678 21.2533 0.000521502 21.5113C-0.00623378 21.7693 0.0378865 22.025 0.128248 22.2516C0.218651 22.4781 0.351942 22.6672 0.514123 22.7989C0.676305 22.9306 0.861393 23 1.04995 23H19.95C20.3342 23 20.6876 22.7129 20.8717 22.2512C20.9621 22.0246 21.0062 21.769 20.9994 21.511C20.9927 21.2531 20.9353 21.0024 20.8333 20.7854ZM10.5 4.09598L13.3019 10.0625H10.5L8.39998 12.9375L7.15113 11.2278L10.5 4.09598Z" fill="#1098AD"/>
</g>
<defs>
<clipPath id="clip0">
<rect width="21" height="23" fill="white"/>
</clipPath>
</defs>
</svg>
