<svg width="11" height="12" viewBox="0 0 11 12" fill="none" xmlns="http://www.w3.org/2000/svg">
<path d="M5.5 0C2.46169 0 0 2.68548 0 6C0 9.31452 2.46169 12 5.5 12C8.53831 12 11 9.31452 11 6C11 2.68548 8.53831 0 5.5 0ZM5.5 2.32258C6.57782 2.32258 7.45161 3.27581 7.45161 4.45161C7.45161 5.62742 6.57782 6.58065 5.5 6.58065C4.42218 6.58065 3.54839 5.62742 3.54839 4.45161C3.54839 3.27581 4.42218 2.32258 5.5 2.32258ZM5.5 10.6452C4.19819 10.6452 3.03165 10.0016 2.25101 8.99516C2.66794 8.13871 3.48407 7.54839 4.43548 7.54839C4.48871 7.54839 4.54194 7.55806 4.59294 7.575C4.88125 7.67661 5.18286 7.74194 5.5 7.74194C5.81714 7.74194 6.12097 7.67661 6.40706 7.575C6.45806 7.55806 6.51129 7.54839 6.56452 7.54839C7.51593 7.54839 8.33206 8.13871 8.74899 8.99516C7.96835 10.0016 6.80181 10.6452 5.5 10.6452Z" fill="#727681"/>
</svg>
