<svg width="13" height="12" viewBox="0 0 13 12" fill="none" xmlns="http://www.w3.org/2000/svg">
<path d="M1.21875 0C0.545898 0 0 0.575893 0 1.28571V10.7143C0 11.4241 0.545898 12 1.21875 12H11.7812C12.4541 12 13 11.4241 13 10.7143V1.28571C13 0.575893 12.4541 0 11.7812 0H1.21875ZM1.21875 0.857143H3.91016C3.99395 0.857143 4.0625 0.929464 4.0625 1.01786V1.55357C4.0625 1.64196 3.99395 1.71429 3.91016 1.71429H0.964844C0.881055 1.71429 0.8125 1.64196 0.8125 1.55357V1.28571C0.8125 1.05 0.995313 0.857143 1.21875 0.857143ZM12.0352 3.42857H0.964844C0.881055 3.42857 0.8125 3.35625 0.8125 3.26786V2.30357C0.8125 2.21518 0.881055 2.14286 0.964844 2.14286H4.46875L5.23555 0.929464C5.26348 0.883928 5.31172 0.857143 5.3625 0.857143H11.7812C12.0047 0.857143 12.1875 1.05 12.1875 1.28571V3.26786C12.1875 3.35625 12.1189 3.42857 12.0352 3.42857ZM6.5 10.5C4.81914 10.5 3.45312 9.05893 3.45312 7.28571C3.45312 5.5125 4.81914 4.07143 6.5 4.07143C8.18086 4.07143 9.54688 5.5125 9.54688 7.28571C9.54688 9.05893 8.18086 10.5 6.5 10.5ZM6.5 4.92857C5.26855 4.92857 4.26562 5.98661 4.26562 7.28571C4.26562 8.58482 5.26855 9.64286 6.5 9.64286C7.73145 9.64286 8.73438 8.58482 8.73438 7.28571C8.73438 5.98661 7.73145 4.92857 6.5 4.92857ZM5.28125 7.71429C5.05781 7.71429 4.875 7.52143 4.875 7.28571C4.875 6.34018 5.60371 5.57143 6.5 5.57143C6.72344 5.57143 6.90625 5.76429 6.90625 6C6.90625 6.23571 6.72344 6.42857 6.5 6.42857C6.05312 6.42857 5.6875 6.81429 5.6875 7.28571C5.6875 7.52143 5.50469 7.71429 5.28125 7.71429Z" fill="#727681"/>
</svg>
