<svg width="11" height="11" viewBox="0 0 11 11" fill="none" xmlns="http://www.w3.org/2000/svg">
<path d="M3.3 5.5C4.36391 5.5 5.225 4.26987 5.225 2.75C5.225 1.23013 4.36391 0 3.3 0C2.23609 0 1.375 1.23013 1.375 2.75C1.375 4.26987 2.23609 5.5 3.3 5.5ZM4.62 6.28571H4.47734C4.11984 6.53125 3.72281 6.67857 3.3 6.67857C2.87719 6.67857 2.48187 6.53125 2.12266 6.28571H1.98C0.886875 6.28571 0 7.55268 0 9.11429V9.82143C0 10.4721 0.369531 11 0.825 11H5.775C6.23047 11 6.6 10.4721 6.6 9.82143V9.11429C6.6 7.55268 5.71312 6.28571 4.62 6.28571ZM8.25 5.5C9.16094 5.5 9.9 4.4442 9.9 3.14286C9.9 1.84152 9.16094 0.785714 8.25 0.785714C7.33906 0.785714 6.6 1.84152 6.6 3.14286C6.6 4.4442 7.33906 5.5 8.25 5.5ZM9.075 6.28571H9.00969C8.77078 6.40357 8.51813 6.48214 8.25 6.48214C7.98187 6.48214 7.72922 6.40357 7.49031 6.28571H7.425C7.07438 6.28571 6.75125 6.43058 6.46766 6.66384C6.88703 7.3096 7.15 8.16652 7.15 9.11429V10.0571C7.15 10.1112 7.14141 10.1627 7.13969 10.2143H10.175C10.6305 10.2143 11 9.68638 11 9.03571C11 7.51585 10.1389 6.28571 9.075 6.28571Z" fill="#727681"/>
</svg>
