<svg width="14" height="15" viewBox="0 0 14 15" fill="none" xmlns="http://www.w3.org/2000/svg">
<path d="M13.8096 12.5719L11.0832 9.84601C10.9602 9.72297 10.7934 9.65462 10.6184 9.65462H10.1726C10.9274 8.68948 11.3758 7.47554 11.3758 6.15496C11.3758 3.01347 8.82994 0.468018 5.68792 0.468018C2.54589 0.468018 0 3.01347 0 6.15496C0 9.29645 2.54589 11.8419 5.68792 11.8419C7.00872 11.8419 8.22287 11.3935 9.18817 10.6389V11.0846C9.18817 11.2595 9.25654 11.4263 9.37959 11.5494L12.106 14.2753C12.363 14.5323 12.7787 14.5323 13.033 14.2753L13.8069 13.5015C14.0639 13.2445 14.0639 12.8289 13.8096 12.5719ZM5.68792 9.65462C3.75457 9.65462 2.18766 8.09071 2.18766 6.15496C2.18766 4.22195 3.75184 2.6553 5.68792 2.6553C7.62126 2.6553 9.18817 4.21921 9.18817 6.15496C9.18817 8.08798 7.624 9.65462 5.68792 9.65462Z" fill="#727681"/>
</svg>
