<svg width="131" height="45" viewBox="0 0 131 45" fill="none" xmlns="http://www.w3.org/2000/svg">
<path d="M46.57 19.85C46.57 17.9133 45.73 16.28 44.05 14.95C42.5567 13.7833 40.8067 13.2 38.8 13.2C36.28 13.2 34.25 14.04 32.71 15.72C31.59 16.9567 31.03 18.3333 31.03 19.85C31.03 21.9267 32.4417 23.665 35.265 25.065C35.8017 25.3217 37.4467 25.9867 40.2 27.06C42.4633 27.9467 43.7933 28.7867 44.19 29.58C44.33 29.8367 44.4 30.0933 44.4 30.35C44.4 31.6333 43.6417 32.66 42.125 33.43C41.0983 33.9433 39.99 34.2 38.8 34.2C36.91 34.2 35.3933 33.6633 34.25 32.59C33.5733 31.9133 33.2233 31.1667 33.2 30.35H30.4C30.4 32.17 31.2283 33.745 32.885 35.075C34.5417 36.3583 36.5133 37 38.8 37C41.4367 37 43.6067 36.16 45.31 34.48C46.5467 33.22 47.1767 31.8433 47.2 30.35C47.2 28.25 45.7883 26.4883 42.965 25.065C42.405 24.8083 40.7367 24.1317 37.96 23.035C35.72 22.1717 34.4017 21.355 34.005 20.585C33.8883 20.3283 33.83 20.0833 33.83 19.85C33.83 18.4967 34.5417 17.4467 35.965 16.7C36.8517 16.2333 37.7967 16 38.8 16C40.5267 16 41.8917 16.5483 42.895 17.645C43.4783 18.2983 43.77 19.0333 43.77 19.85H46.57ZM50.23 36.16L58.035 18.135L65.84 36.16L66.225 37H69.27L68.43 35.04L59.33 14.04L58.945 13.2H57.125L56.74 14.04L47.64 35.04L46.8 37H49.845L50.23 36.16ZM73.7727 35.6V19.045L85.8827 36.405L86.3027 37H88.4377V35.6L88.4727 14.6V13.2H85.6727V14.6L85.6377 31.155L73.5277 13.795L73.1077 13.2H70.9727V14.6V35.6V37H73.7727V35.6ZM101.464 13.2H98.6645H92.3295H90.9295V16H92.3295H98.6645V35.6V37H101.464V35.6V16H107.729H109.129V13.2H107.729H101.464ZM111.459 36.16L119.264 18.135L127.069 36.16L127.454 37H130.499L129.659 35.04L120.559 14.04L120.174 13.2H118.354L117.969 14.04L108.869 35.04L108.029 37H111.074L111.459 36.16Z" fill="#727681"/>
<path d="M21.4714 9.18202C22.6738 7.75699 25 8.60725 25 10.4718V35C25 36.1046 24.1046 37 23 37H2.3043C0.602895 37 -0.321468 35.0106 0.77572 33.7103L21.4714 9.18202Z" fill="#F76707"/>
</svg>
